<?xml version="1.0" encoding="UTF-8"?>
<!-- Generator: visioncortex VTracer 0.6.3 -->
<svg version="1.1" xmlns="http://www.w3.org/2000/svg" width="1280" height="1157">
<path d="M0 0 C6.93 0.47 12.7 3.23 19 6 C20.35 6.54 21.71 7.08 23.06 7.62 C26 9 26 9 27.28 10.43 C30.49 13.36 34.91 14.24 38.97 15.62 C42 17 42 17 43.5 19.03 C45.68 21.9 48.01 22.16 51.44 23.06 C58.86 25.03 58.86 25.03 62 28 C62 28.66 62 29.32 62 30 C62.58 30.17 63.16 30.34 63.76 30.52 C68.78 32.07 72.87 33.71 77 37 C77 37.66 77 38.32 77 39 C77.57 39.15 78.14 39.29 78.72 39.45 C83.92 40.96 87.19 42.74 91.1 46.45 C94.06 48.87 97.46 50.24 100.96 51.73 C103 53 103 53 103.51 55.06 C103.75 56.02 103.75 56.02 104 57 C106.03 57.96 106.03 57.96 108.44 58.44 C110.93 59.15 110.93 59.15 113 60 C113.72 61.64 114.39 63.31 115 65 C117.32 65.71 119.66 66.37 122 67 C124.31 68.49 126.01 70.06 128 72 C128 72.66 128 73.32 128 74 C128.72 74.27 129.44 74.54 130.19 74.81 C137.48 77.89 137.48 77.89 138.94 81 C139.91 83.3 139.91 83.3 142.88 84.44 C146.36 86.18 147.6 88 150 91 C150.97 91.47 151.94 91.95 152.94 92.44 C156.67 94.34 158.37 96.77 161 100 C162.99 101.35 164.99 102.68 167 104 C170.11 106.55 173.19 109.12 176 112 C176 112.66 176 113.32 176 114 C177.32 114.66 178.64 115.32 180 116 C180 116.66 180 117.32 180 118 C180.96 118.4 180.96 118.4 181.94 118.81 C184 120 184 120 185 123 C187 124.21 187 124.21 189 125 C189 125.66 189 126.32 189 127 C189.96 127.4 189.96 127.4 190.94 127.81 C193 129 193 129 194 132 C196 133.21 196 133.21 198 134 C198 134.66 198 135.32 198 136 C198.66 136 199.32 136 200 136 C201.33 137.57 201.33 137.57 202.81 139.69 C205.99 144.07 209.55 147.69 213.56 151.31 C215.72 153.69 216.66 155.22 217.94 158.06 C219.82 162.15 222.21 163.58 226 166 C227.03 167.98 228.03 169.98 229 172 C229.76 172.6 230.53 173.2 231.31 173.81 C234.49 176.4 236.26 179.19 238.45 182.62 C240.39 185.59 242.52 188.38 244.7 191.18 C246 193 246 193 247.05 195.11 C247.95 197.16 247.95 197.16 249.94 198.88 C252.66 201.68 255 204.97 255 209 C255.6 209.21 256.2 209.42 256.82 209.64 C259.82 211.51 260.51 213.6 261.94 216.81 C264.14 221.48 266.3 224.4 270 228 C271.1 230.24 272.03 232.48 272.91 234.82 C273.92 237.13 273.92 237.13 276 238.94 C278.33 241.34 278.97 243.2 279.94 246.38 C281.16 250.01 282 252.01 284.5 255 C286.99 257.99 287.8 259.93 289 263.56 C290.19 267.14 290.73 268.74 293.5 271.38 C296.99 275.04 297.68 279 298.91 283.84 C299.82 287.06 299.82 287.06 301.96 289.44 C304.43 292.54 305.42 295.7 306.5 299.44 C307.61 303.26 308.71 306.58 311 309.9 C313.54 313.84 314.47 317.66 315.56 322.19 C315.95 323.79 316.35 325.39 316.75 326.98 C316.92 327.68 317.09 328.38 317.26 329.1 C318.12 331.32 319.3 332.37 321 334 C321.88 336.6 321.88 336.6 322.56 339.62 C322.81 340.69 323.06 341.76 323.32 342.86 C323.73 344.76 324.13 346.67 324.49 348.58 C324.71 349.72 324.71 349.72 324.94 350.88 C325.05 351.53 325.16 352.19 325.28 352.87 C325.94 355.2 325.94 355.2 327.91 357.49 C331.14 362.14 331.57 367.78 332.5 373.25 C333.74 380.45 335.22 386.94 338.09 393.66 C339.53 397.38 340.09 401.13 340.62 405.06 C340.74 405.87 340.86 406.68 340.99 407.51 C341.58 411.59 342.09 415.67 342.52 419.76 C342.61 420.52 342.69 421.27 342.77 422.05 C342.92 423.47 343.06 424.89 343.18 426.3 C343.65 431.02 345.08 434.7 347 439 C347.7 441.89 347.7 441.89 348.12 444.69 C348.35 446.05 348.35 446.05 348.57 447.45 C349.7 456.81 350.22 466.2 350.55 475.62 C350.6 476.82 350.64 478.02 350.68 479.26 C351.12 493.04 351.15 506.83 351.13 520.63 C351.12 524.27 351.13 527.91 351.13 531.56 C351.22 599.17 351.22 599.17 346.05 612.07 C343.34 619.13 342.75 626.41 342 633.88 C340.98 643.99 339.37 653.35 336 663 C334.75 666.59 333.71 670.04 333.07 673.79 C332.91 674.65 332.76 675.51 332.6 676.39 C332.28 678.17 331.97 679.96 331.68 681.74 C330.7 687.04 329.48 689.8 326 694 C325.35 696.66 324.87 699.12 324.5 701.81 C323.54 707.86 322.18 712.73 319 718 C318.34 718 317.68 718 317 718 C316.85 719.04 316.71 720.08 316.55 721.15 C315.35 728.91 314 734.8 309.48 741.36 C307.62 744.68 306.79 748.08 305.94 751.75 C304.12 759.51 304.12 759.51 301.44 762.31 C298.47 765.58 297.75 768.42 296.68 772.63 C295.68 776.12 294.67 778.37 292 780.87 C288.92 784.15 288.31 787.96 287.12 792.22 C285.85 795.38 284.68 796.04 282 798 C280.84 800.54 280.84 800.54 280.06 803.38 C278.46 808.19 276.64 810.45 273 814 C272.28 815.64 271.61 817.31 271 819 C269.37 823.46 267.41 825.67 264 829 C262.65 831.56 261.46 834.14 260.31 836.79 C258.79 839.35 257.63 839.8 255 841 C254.32 843 253.66 845 253 847 C251.49 849.25 249.88 851.02 248 853 C247.34 853 246.68 853 246 853 C245.94 853.85 245.88 854.69 245.81 855.56 C244.36 861.72 240.38 865.62 236 870 C235.34 871.01 234.68 872.02 234 873.06 C232 876 232 876 229.94 877.5 C227.29 879.55 226.4 882 225 885 C224.34 885.66 223.68 886.32 223 887 C222.01 887 221.02 887 220 887 C219.75 887.91 219.51 888.82 219.25 889.75 C217.95 893.14 216.83 894.77 214 897 C213.01 897 212.02 897 211 897 C210.88 898.11 210.88 898.11 210.75 899.25 C209.84 902.57 208.55 903.75 206 906 C200.95 910.91 196.5 916.33 192.25 921.94 C187.84 927.52 182.58 931.64 177 936 C175.64 937.18 174.28 938.37 172.94 939.56 C170 942 170 942 168 942 C167.77 942.76 167.55 943.53 167.31 944.31 C165.72 947.58 164.24 948.46 161 950 C160.34 950 159.68 950 159 950 C158.75 950.76 158.51 951.53 158.25 952.31 C156.87 955.29 155.77 956.32 153 958 C152.01 958.33 151.02 958.66 150 959 C149.61 959.74 149.22 960.49 148.81 961.25 C146.62 964.58 144.31 965.83 140.92 967.81 C138.59 969.25 136.9 971.04 135 973 C133.55 973.96 133.55 973.96 132.06 974.94 C128.95 976.87 128.95 976.87 126.62 979.5 C124.27 981.74 122.8 982.69 119.94 984 C116.2 985.72 114.56 987.78 112 991 C110.3 991.74 108.59 992.47 106.85 993.12 C104.72 994.13 103.34 995.38 101.62 997 C98.33 1000.03 95.24 1001.14 90.92 1002.16 C88.83 1002.83 88.83 1002.83 88.07 1004.9 C86.56 1007.86 84.63 1008.54 81.69 1010 C77.73 1012.04 74.47 1014.21 71 1017 C67.68 1018.73 64.8 1020 61 1020 C60.62 1020.92 60.62 1020.92 60.23 1021.87 C58.8 1024.34 57.81 1024.94 55.25 1026.12 C54.54 1026.46 53.83 1026.79 53.09 1027.13 C51 1028 51 1028 47.75 1029 C44.92 1029.79 44.92 1029.79 43.27 1031.91 C39.58 1035.31 35.03 1036.18 30.31 1037.66 C26.98 1038.75 26.98 1038.75 24.99 1041.04 C22.28 1043.71 19.8 1044.08 16.12 1044.94 C10.65 1046.34 10.65 1046.34 6.06 1049.5 C2.19 1052.66 -1.67 1053.37 -6.41 1054.48 C-10.07 1055.37 -12.92 1056.3 -15.94 1058.56 C-20.23 1061.67 -25.11 1062.04 -30.21 1062.83 C-35.84 1063.78 -38.68 1065.41 -43 1069 C-46.34 1070.27 -49.48 1070.93 -53.02 1071.38 C-54.68 1071.6 -54.68 1071.6 -56.38 1071.81 C-57.41 1071.92 -58.45 1072.03 -59.52 1072.14 C-62.72 1072.93 -64.5 1073.8 -67.25 1075.47 C-72.24 1078.38 -76.88 1079.1 -82.56 1079.69 C-93.14 1080.86 -93.14 1080.86 -103.28 1083.94 C-114.41 1088.33 -126.31 1088.42 -138.12 1089.25 C-140.41 1089.42 -142.7 1089.6 -144.99 1089.77 C-161.13 1091 -161.13 1091 -164 1091 C-163.67 1091.99 -163.34 1092.98 -163 1094 C-164 1095 -164 1095 -165.81 1095.12 C-166.61 1095.12 -167.4 1095.12 -168.22 1095.12 C-169.59 1095.12 -169.59 1095.12 -170.98 1095.12 C-171.98 1095.12 -172.99 1095.12 -174.03 1095.11 C-175.08 1095.11 -176.13 1095.11 -177.22 1095.11 C-180.72 1095.11 -184.22 1095.11 -187.72 1095.1 C-190.14 1095.1 -192.56 1095.09 -194.98 1095.09 C-201.37 1095.09 -207.75 1095.08 -214.13 1095.07 C-220.64 1095.06 -227.15 1095.05 -233.66 1095.05 C-246.44 1095.04 -259.22 1095.02 -272 1095 C-272.33 1093.68 -272.66 1092.36 -273 1091 C-273.6 1090.96 -274.19 1090.92 -274.8 1090.88 C-281.07 1090.47 -287.33 1090.02 -293.59 1089.57 C-295.92 1089.4 -298.25 1089.24 -300.58 1089.09 C-323.42 1087.58 -323.42 1087.58 -334.01 1083.17 C-339.02 1081.21 -344.2 1080.59 -349.5 1079.88 C-361.59 1078.2 -361.59 1078.2 -367 1075 C-371.93 1072.84 -376.28 1071.74 -381.62 1071 C-387.33 1070.2 -391.38 1068.82 -396.13 1065.52 C-400.43 1063.24 -404.93 1062.55 -409.67 1061.63 C-414.63 1060.57 -417.77 1058.88 -422 1056 C-425.66 1054.82 -425.66 1054.82 -429.5 1054 C-434.89 1052.77 -438.49 1051.17 -443 1048 C-445.25 1047.04 -445.25 1047.04 -447.44 1046.44 C-451.46 1045.17 -455.24 1043.92 -459 1042 C-459.26 1041.34 -459.53 1040.68 -459.8 1040 C-460.89 1037.69 -460.89 1037.69 -463.86 1037.09 C-465 1036.9 -466.14 1036.7 -467.31 1036.5 C-472.31 1035.63 -475.33 1034.58 -479 1031 C-479 1030.34 -479 1029.68 -479 1029 C-479.57 1028.9 -480.14 1028.8 -480.72 1028.7 C-486.65 1027.55 -492.14 1026.04 -496.43 1021.49 C-498.28 1019.74 -499.95 1019.05 -502.31 1018.12 C-505.33 1016.85 -507.73 1015.6 -510.19 1013.44 C-513 1011 -515.67 1009.63 -519 1008 C-520.88 1006.69 -520.88 1006.69 -522 1005 C-522.59 1001.21 -522.21 999.38 -520.38 996 C-513.79 987.68 -513.79 987.68 -509.38 986 C-506.68 985.12 -506.68 985.12 -505 982 C-502.72 978.59 -501.65 978.46 -498 977 C-497.36 976.03 -496.72 975.06 -496.06 974.06 C-493.68 970.53 -491.75 969.83 -488 968 C-487.5 967.17 -487.01 966.35 -486.5 965.5 C-484.55 962.25 -482.34 961.67 -479 960 C-477.98 958.34 -476.98 956.68 -476 955 C-470.7 951 -470.7 951 -468 951 C-467.91 950.4 -467.81 949.79 -467.71 949.17 C-466.84 946.5 -465.87 945.8 -463.56 944.25 C-462.64 943.61 -462.64 943.61 -461.69 942.95 C-460 942 -460 942 -458 942 C-457.34 940.68 -456.68 939.36 -456 938 C-455.34 938 -454.68 938 -454 938 C-453.67 937.01 -453.34 936.02 -453 935 C-451.55 933.79 -451.55 933.79 -449.75 932.62 C-447.29 930.96 -445.45 929.45 -443.31 927.31 C-441 925 -441 925 -439 924.06 C-436.66 922.99 -436.66 922.99 -434.56 919.94 C-431.71 916.67 -430.98 916.75 -427 916 C-426.33 914.34 -425.66 912.67 -425 911 C-419.81 907 -419.81 907 -417 907 C-416.87 906.1 -416.87 906.1 -416.73 905.18 C-415.8 902.4 -414.66 901.69 -412.25 900.06 C-409.62 898.22 -407.65 896.62 -405.44 894.25 C-401.83 890.92 -398.51 890 -393.61 890 C-387.19 890.47 -381.77 892.12 -376 895 C-376 895.66 -376 896.32 -376 897 C-375.24 897.17 -374.48 897.34 -373.69 897.52 C-366.24 899.26 -359.12 901.22 -352.72 905.54 C-349.38 907.33 -346.14 907.83 -342.44 908.38 C-337.34 909.21 -332.95 910.26 -328.25 912.5 C-320.63 915.97 -312.51 916.66 -304.28 917.71 C-295.85 918.79 -288 920.44 -279.91 923.1 C-262.15 928.61 -241.11 926.16 -222.65 926.13 C-218.89 926.12 -215.13 926.13 -211.37 926.13 C-198.07 926.15 -184.78 926.16 -171.49 925.62 C-170.24 925.57 -170.24 925.57 -168.96 925.53 C-161.88 925.18 -154.97 924.21 -148.38 921.53 C-141.33 918.71 -133.31 918.27 -125.84 917.27 C-115.48 915.96 -115.48 915.96 -105.93 911.96 C-101.82 909.92 -97.16 909.32 -92.69 908.44 C-90.73 908.05 -88.78 907.65 -86.82 907.25 C-85.97 907.08 -85.11 906.91 -84.23 906.74 C-81.74 905.91 -80.72 904.93 -79 903 C-77.12 902.16 -77.12 902.16 -75 901.5 C-74.21 901.25 -73.42 901 -72.61 900.75 C-70.79 900.22 -68.95 899.74 -67.11 899.29 C-66.14 899.05 -65.18 898.81 -64.19 898.56 C-63.29 898.36 -62.4 898.15 -61.48 897.94 C-58.88 897.16 -58.88 897.16 -57.11 895.02 C-54.31 892.34 -51.87 891.94 -48.12 891.06 C-42.5 889.72 -42.5 889.72 -37.88 886.5 C-34.8 883.83 -32.79 883.16 -28.94 882 C-23.95 880.48 -21.56 878.86 -18 875 C-14.36 873.17 -11.09 872 -7 872 C-6.77 871.4 -6.55 870.8 -6.31 870.19 C-4.06 866.44 -0.9 865.27 3.19 864.06 C4.12 863.71 5.04 863.36 6 863 C6.28 862.38 6.56 861.76 6.84 861.12 C8.44 858.19 10.35 857.51 13.31 856.06 C17.65 853.83 20.64 851.56 24 848 C24.87 847.67 25.73 847.34 26.62 847 C29.2 846.2 29.2 846.2 30.31 843.69 C32.41 840.35 34.68 839.2 38.02 837.25 C40.74 835.53 42.76 833.3 45 831 C46.32 829.98 47.65 828.98 49 828 C52.32 825.56 55.15 822.99 58 820 C59.51 818.43 61.04 816.87 62.56 815.31 C63.31 814.55 64.05 813.78 64.82 812.99 C66.84 811.14 68.56 810.17 71 809 C71.43 808.28 71.87 807.56 72.31 806.81 C74.22 803.63 76.47 801.45 79.11 798.88 C84.59 793.43 89.36 787.37 94.11 781.3 C96 779 96 779 98.14 776.86 C100.13 775.03 100.13 775.03 101.5 772.44 C103 770 103 770 105 768.62 C107.88 766.28 108.63 763.41 110 760 C111.56 757.56 111.56 757.56 113 756 C113.66 756 114.32 756 115 756 C115.25 755.13 115.5 754.27 115.75 753.38 C117.41 748.9 119.57 745.34 123.06 742.06 C125.61 739.35 126.6 736.42 128 733 C129.56 730.56 129.56 730.56 131 729 C131.66 729 132.32 729 133 729 C133.18 728.34 133.36 727.67 133.55 726.99 C134.9 722.25 136.19 718.1 139 714 C141.9 709.46 143.77 704.74 145.72 699.74 C147 697 147 697 148.5 695.62 C151.34 692.55 151.94 687.96 153.02 683.98 C153.99 680.59 154.74 678.32 157 675.54 C159.76 672.03 160.47 668.47 161.5 664.19 C162.62 659.6 163.69 655.37 166 651.22 C168.81 645.9 169.55 640.13 170.56 634.25 C170.95 632.02 171.35 629.8 171.75 627.58 C172.01 626.11 172.01 626.11 172.26 624.62 C173.06 621.8 174.21 620.29 176 618 C178.27 611.59 178.47 604.59 178.94 597.88 C180.78 574.32 180.78 574.32 185 568 C186.34 558.66 186.15 549.06 186.13 539.64 C186.13 538.33 186.13 537.02 186.14 535.67 C186.14 532.92 186.14 530.18 186.13 527.43 C186.12 523.94 186.13 520.45 186.13 516.96 C186.14 513.58 186.14 510.2 186.13 506.83 C186.13 505.59 186.14 504.35 186.14 503.07 C186.11 493.3 186.03 484.99 182 476 C181.27 473.03 180.81 470.03 180.38 467 C180.25 466.17 180.12 465.34 179.99 464.49 C179.06 458.08 178.59 451.72 178.24 445.25 C177.82 437.8 177.82 437.8 174.56 431.36 C172.14 427.7 171.71 423.71 170.94 419.44 C170.77 418.54 170.59 417.64 170.42 416.72 C169.37 411.23 168.42 405.73 167.69 400.19 C167.1 397.82 167.1 397.82 165.05 395.73 C162.39 392.19 161.91 389.04 161.12 384.75 C159.85 378.56 158.3 374.17 154.38 369.11 C152.24 365.83 151.66 362.27 150.78 358.5 C150 356 149.26 354.76 147.5 352.88 C143.44 348.2 142 343.14 142 337 C141.38 336.76 140.77 336.52 140.13 336.27 C137.51 334.71 137.04 333.55 135.94 330.75 C135.44 329.55 135.44 329.55 134.93 328.32 C134.47 327.17 134.47 327.17 134 326 C132.05 321.67 132.05 321.67 129 318.12 C126.95 315.95 126.47 314.77 125.56 312 C124.55 309 124.2 308.16 121.62 306.12 C118.21 303.36 117.09 300.32 115.26 296.39 C113.67 293.37 111.44 291.37 109 289 C108.69 288.01 108.38 287.02 108.06 286 C106.65 282.01 104.27 280.6 101 278 C99.97 276.35 98.97 274.68 98 273 C97.11 272.11 96.23 271.23 95.31 270.31 C94.55 269.55 93.79 268.79 93 268 C93 267.34 93 266.68 93 266 C89.7 265.17 87.18 264.58 84 266 C82.72 267.98 82.72 267.98 82 270 C81.34 270 80.68 270 80 270 C79.77 270.54 79.55 271.07 79.31 271.62 C76.45 276.8 72.2 280.9 68 285 C67.28 285.76 66.56 286.53 65.81 287.31 C64 289 64 289 62 289 C61.71 289.58 61.42 290.15 61.12 290.75 C60.75 291.49 60.38 292.24 60 293 C59.75 293.66 59.5 294.32 59.25 295 C58 297 58 297 55.12 298.88 C51.68 301.22 50.25 303.55 48 307 C46.67 307.67 45.33 308.33 44 309 C42.66 310.99 41.32 312.99 40 315 C38.33 316.33 36.67 317.67 35 319 C33.65 320.99 32.31 322.99 31 325 C29.38 326.71 27.71 328.38 26 330 C25.13 330.87 24.27 331.73 23.38 332.62 C22.06 333.94 20.74 335.24 19.38 336.5 C17.84 338.05 17.84 338.05 16.62 340.5 C15 343 15 343 12.56 344.38 C9.63 346.24 8.61 348.21 7.02 351.24 C5.03 354.68 2.05 357.11 -0.96 359.65 C-5.1 363.17 -8.03 366.4 -11 371 C-11.78 371.6 -12.57 372.2 -13.38 372.81 C-15.91 374.92 -17.09 376.56 -18.81 379.31 C-21.89 384.14 -25.62 387.39 -30 391 C-33.44 394.28 -36.53 397.75 -39.59 401.37 C-41.3 403.35 -43.15 405.15 -45 407 C-45.64 407.8 -46.28 408.61 -46.94 409.44 C-49.13 412.16 -51.5 414.56 -54 417 C-54.87 417.89 -55.73 418.77 -56.62 419.69 C-59 422 -59 422 -62 424 C-62.68 425.18 -62.68 425.18 -63.38 426.38 C-65 429 -65 429 -67.5 430.94 C-70.22 432.87 -70.22 432.87 -71.44 436.12 C-73 439 -73 439 -76.19 440.38 C-77.12 440.58 -78.04 440.79 -79 441 C-79.06 441.74 -79.12 442.49 -79.19 443.25 C-80.25 446.85 -81.91 447.97 -85 450 C-85.66 450 -86.32 450 -87 450 C-87.27 450.76 -87.54 451.53 -87.81 452.31 C-88.96 454.92 -89.8 456.24 -92 458 C-92.99 458.33 -93.98 458.66 -95 459 C-95.47 459.95 -95.95 460.9 -96.44 461.88 C-98 465.01 -99.02 466.27 -102 468 C-102.66 468 -103.32 468 -104 468 C-93.37 479.24 -79.33 478.49 -64.65 479.77 C-46.51 481.49 -46.51 481.49 -43 485 C-40.96 485.26 -38.92 485.47 -36.88 485.65 C-35.61 485.77 -34.35 485.89 -33.04 486.01 C-30.38 486.25 -27.72 486.49 -25.05 486.72 C-7.63 488.37 -7.63 488.37 -3 493 C-3 499.04 -4.46 502.64 -8.25 507.32 C-10.79 509.75 -13.78 510.69 -17 512 C-18.37 513.97 -19.71 515.97 -21 518 C-22.67 518.67 -24.33 519.33 -26 520 C-27.35 521.99 -28.69 523.99 -30 526 C-34.2 529 -34.2 529 -37 529 C-37.21 529.74 -37.41 530.49 -37.62 531.25 C-39.41 534.82 -41.56 536.07 -45 538 C-45.66 538 -46.32 538 -47 538 C-47.24 538.57 -47.47 539.14 -47.72 539.73 C-51.77 546.89 -60.37 552.2 -66.77 557.18 C-69.06 558.98 -69.06 558.98 -71.12 561.2 C-73 563 -73 563 -75.62 563.44 C-76.41 563.62 -77.19 563.81 -78 564 C-79.11 566.39 -79.11 566.39 -80 569 C-82.35 571.12 -83.97 571.99 -87 573 C-87.41 573.74 -87.83 574.49 -88.25 575.25 C-90.25 578.39 -92.26 579.71 -95.3 581.74 C-97.65 583.48 -99.2 585.72 -101 588 C-102.67 589 -104.33 590 -106 591 C-106.64 591.8 -107.28 592.61 -107.94 593.44 C-110.31 596.38 -112.84 597.94 -116 600 C-118.31 602.21 -120.51 604.47 -122.69 606.81 C-124 608 -124 608 -126 608 C-126.22 608.58 -126.44 609.16 -126.67 609.75 C-128.41 612.69 -130.5 614.01 -133.31 615.94 C-137.91 619.14 -137.91 619.14 -142 622.94 C-144 625 -144 625 -147 626 C-147.6 626.95 -148.2 627.9 -148.81 628.88 C-151.28 632.41 -153.21 633.14 -157 635 C-157.47 635.8 -157.95 636.61 -158.44 637.44 C-160.26 640.43 -162.24 641.38 -165.3 642.96 C-167.8 644.49 -169.23 646.7 -171 649 C-171.85 649.5 -172.69 649.99 -173.56 650.5 C-176.16 651.83 -176.16 651.83 -177.38 654.44 C-179.25 657.39 -181.25 658.38 -184.3 659.97 C-186.82 661.5 -188.24 663.67 -190 666 C-191.98 667.69 -193.98 669.35 -196 671 C-196.78 671.8 -197.57 672.61 -198.38 673.44 C-201.13 676.13 -204.04 678.32 -207.15 680.58 C-209.15 682.04 -209.15 682.04 -211.19 684.31 C-213 686 -213 686 -215.62 686.44 C-216.41 686.62 -217.19 686.81 -218 687 C-219.11 689.39 -219.11 689.39 -220 692 C-222.35 694.12 -223.97 694.99 -227 696 C-227.62 696.97 -228.24 697.94 -228.88 698.94 C-231.25 702.36 -232.31 702.52 -236 704 C-236.64 704.97 -237.28 705.94 -237.94 706.94 C-240.33 710.49 -242.22 711.15 -246 713 C-247.71 714.96 -249.38 716.96 -251 719 C-254.5 722 -254.5 722 -257 722 C-257.31 722.84 -257.31 722.84 -257.62 723.69 C-259.58 726.97 -261.94 728.71 -265 731 C-265.66 731 -266.32 731 -267 731 C-267.23 731.58 -267.46 732.15 -267.7 732.75 C-269.34 735.58 -271.28 737.03 -273.88 739 C-276.47 740.98 -278.88 742.88 -281.16 745.22 C-283 747 -283 747 -285.62 747.44 C-286.41 747.62 -287.19 747.81 -288 748 C-289.18 750.38 -289.18 750.38 -290 753 C-291.81 755.41 -292.72 755.93 -295.69 756.69 C-296.83 756.84 -296.83 756.84 -298 757 C-298.1 757.6 -298.21 758.2 -298.31 758.81 C-299.12 761.39 -299.84 762.38 -302 764 C-303.27 764.19 -303.27 764.19 -304.56 764.38 C-305.37 764.58 -306.17 764.79 -307 765 C-307.27 765.72 -307.54 766.44 -307.81 767.19 C-309.39 770.93 -311.72 772.23 -314.98 774.53 C-317.6 776.44 -319.77 778.65 -322 781 C-330.09 789.29 -330.09 789.29 -334.69 791 C-337.16 791.81 -337.16 791.81 -338.31 794.12 C-338.65 795.05 -338.65 795.05 -339 796 C-339.66 796 -340.32 796 -341 796 C-341.33 796.99 -341.66 797.98 -342 799 C-343.67 799.67 -345.33 800.33 -347 801 C-347.33 801.99 -347.66 802.98 -348 804 C-348.66 804 -349.32 804 -350 804 C-350.31 804.93 -350.31 804.93 -350.62 805.88 C-352 808 -352 808 -355 808.94 C-355.99 809.29 -356.98 809.64 -358 810 C-359.17 812.42 -359.17 812.42 -360 815 C-362.35 817.12 -363.97 817.99 -367 819 C-367.41 819.76 -367.82 820.53 -368.25 821.31 C-370.21 824.32 -372.17 825.34 -375.3 826.97 C-377.8 828.49 -379.22 830.71 -381 833 C-383 834.33 -385 835.67 -387 837 C-388.34 838.66 -389.67 840.33 -391 842 C-392.67 843 -394.33 844 -396 845 C-397.36 846.65 -398.69 848.31 -400 850 C-403.52 853 -403.52 853 -406 853 C-406.22 853.57 -406.44 854.14 -406.67 854.72 C-408.4 857.69 -410.55 859.31 -413.25 861.44 C-414.24 862.23 -415.22 863.01 -416.24 863.82 C-417.15 864.54 -418.06 865.26 -419 866 C-422.01 868.43 -424.89 870.89 -427.62 873.62 C-430.63 876.63 -432.96 878.65 -437 880 C-437.9 881.42 -437.9 881.42 -438.81 882.88 C-441.28 886.41 -443.21 887.14 -447 889 C-447.5 889.83 -447.99 890.65 -448.5 891.5 C-450.45 894.75 -452.66 895.33 -456 897 C-456.47 897.8 -456.95 898.61 -457.44 899.44 C-459.08 902.13 -459.81 902.61 -462.5 904 C-465.95 905.79 -467.05 907.62 -469 911 C-470.38 911.95 -471.77 912.9 -473.2 913.78 C-477.12 916.44 -480.5 919.82 -484 923 C-491.16 929.46 -491.16 929.46 -495.19 932.06 C-497.64 933.75 -498.82 934.9 -500.56 937.19 C-503.31 940.35 -504.12 940.27 -508 941 C-509.11 943.39 -509.11 943.39 -510 946 C-512.35 948.12 -513.97 948.99 -517 950 C-517.41 950.74 -517.83 951.49 -518.25 952.25 C-520.25 955.39 -522.26 956.71 -525.3 958.74 C-527.65 960.48 -529.2 962.72 -531 965 C-532.66 966.02 -534.32 967.02 -536 968 C-537.69 969.65 -539.35 971.31 -541 973 C-542.67 974.33 -544.33 975.67 -546 977 C-546.74 977.76 -547.49 978.53 -548.25 979.31 C-550.59 981.6 -552.91 983.52 -555.5 985.5 C-558.94 988.13 -562.02 990.85 -565 994 C-568.12 997.28 -570.93 999.96 -575 1002 C-575.99 1002 -576.98 1002 -578 1002 C-578.19 1002.91 -578.37 1003.82 -578.56 1004.75 C-580.2 1008.45 -581.66 1009.18 -585.2 1010.93 C-587.17 1012.1 -588.23 1013.26 -589.62 1015.06 C-591.98 1017.97 -593.84 1019.14 -597 1021 C-597.66 1021.83 -598.32 1022.65 -599 1023.5 C-601.14 1026.17 -603.1 1027.26 -606 1029 C-606.64 1029.8 -607.28 1030.61 -607.94 1031.44 C-610.31 1034.38 -612.84 1035.94 -616 1038 C-617.69 1039.65 -619.35 1041.31 -621 1043 C-622.67 1044.33 -624.33 1045.67 -626 1047 C-626.85 1047.85 -627.69 1048.69 -628.56 1049.56 C-631.59 1052.59 -633.92 1054.64 -638 1056 C-638.6 1056.97 -639.2 1057.94 -639.81 1058.94 C-642.39 1062.55 -643.92 1062.67 -648 1064 C-648.72 1065.65 -649.38 1067.31 -650 1069 C-651.63 1070.06 -653.3 1071.05 -655 1072 C-656.69 1073.65 -658.35 1075.31 -660 1077 C-663.33 1079.88 -666.94 1081.33 -671 1083 C-672.34 1083.65 -673.68 1084.31 -675 1085 C-676.25 1083.44 -676.25 1083.44 -677 1081 C-675.37 1077.81 -675.37 1077.81 -674.21 1075.99 C-672.92 1073.87 -672 1071.74 -671.06 1069.44 C-669.29 1065.33 -666.95 1062.38 -664 1059 C-663.13 1057.62 -662.27 1056.22 -661.44 1054.81 C-659.59 1051.76 -657.88 1050.11 -655 1048 C-654.53 1047.03 -654.05 1046.06 -653.56 1045.06 C-652 1042 -652 1042 -649.5 1040.06 C-646.81 1037.84 -646.08 1036.06 -644.87 1032.85 C-643.57 1030.08 -641.59 1028.07 -639.54 1025.82 C-637.94 1023.93 -636.7 1022 -635.44 1019.88 C-633.36 1016.4 -630.91 1013.83 -628 1011 C-627.48 1010.13 -626.97 1009.27 -626.44 1008.38 C-625 1006 -625 1006 -623 1004.62 C-620.64 1002.71 -620.11 1000.88 -619.05 998.1 C-617.23 994.47 -614.54 991.52 -611.94 988.43 C-610.04 986.05 -608.56 983.6 -607 981 C-606.17 980.2 -605.35 979.39 -604.5 978.56 C-601.84 976.12 -601.84 976.12 -600.5 972.81 C-599 970 -599 970 -596.38 969 C-595.59 968.67 -594.81 968.34 -594 968 C-593.64 966.01 -593.31 964 -593 962 C-591.53 959.67 -589.94 957.99 -588 956 C-587.34 956 -586.68 956 -586 956 C-585.75 955.3 -585.5 954.6 -585.25 953.88 C-583.5 949.85 -581.6 946.12 -577.94 943.56 C-575.66 941.98 -575.66 941.98 -574.56 938.44 C-572.7 934.34 -571.92 934.55 -568 933 C-567.63 931.01 -567.3 929 -567 927 C-564.61 922.75 -561.43 919.43 -558 916 C-557.34 914.99 -556.68 913.98 -556 912.94 C-554 910 -554 910 -551.94 908.56 C-549.66 906.98 -549.66 906.98 -548.56 903.44 C-547 900 -547 900 -544.44 899 C-543.63 898.67 -542.83 898.34 -542 898 C-541.56 896.38 -541.14 894.76 -540.79 893.13 C-539.37 889.3 -536.56 886.45 -533.96 883.37 C-532.39 881.48 -531.04 879.64 -529.75 877.56 C-528 875 -528 875 -526 873.62 C-523.36 871.48 -522.48 869.08 -521.06 866.04 C-519.48 863 -517.22 860.6 -515 858 C-514.15 856.66 -513.31 855.3 -512.5 853.94 C-510.39 850.45 -507.93 847.85 -505 845 C-504.48 844.13 -503.97 843.27 -503.44 842.38 C-502 840 -502 840 -500 838.62 C-497.6 836.68 -497 834.71 -495.91 831.89 C-494.57 829.11 -492.6 827.09 -490.54 824.82 C-488.94 822.93 -487.7 821 -486.44 818.88 C-484.36 815.4 -481.91 812.83 -479 810 C-478.48 809.13 -477.97 808.27 -477.44 807.38 C-476 805 -476 805 -474 803.62 C-471.6 801.68 -471 799.71 -469.9 796.88 C-468.58 794.13 -466.65 792.14 -464.61 789.89 C-462.83 787.8 -461.37 785.62 -459.88 783.31 C-457.83 780.15 -455.67 777.67 -453 775 C-452.53 773.97 -452.05 772.94 -451.56 771.88 C-450 769 -450 769 -447.38 768 C-446.59 767.67 -445.81 767.34 -445 767 C-444.87 766.1 -444.75 765.21 -444.62 764.28 C-443.86 760.26 -442.37 758.55 -439.69 755.5 C-435.96 751.2 -435.96 751.2 -432.69 746.56 C-431 744 -431 744 -428.94 742 C-426.59 739.58 -425.45 737.02 -424 734 C-423.34 733.34 -422.68 732.68 -422 732 C-421.01 732 -420.02 732 -419 732 C-418.89 730.69 -418.89 730.69 -418.77 729.34 C-417.85 725.36 -416.37 723.55 -413.69 720.5 C-409.96 716.2 -409.96 716.2 -406.69 711.56 C-405 709 -405 709 -402.94 707 C-400.59 704.58 -399.45 702.02 -398 699 C-397.34 698.34 -396.68 697.68 -396 697 C-395.01 697 -394.02 697 -393 697 C-392.94 696.01 -392.94 696.01 -392.88 695 C-391.61 690.67 -389.07 687.28 -386 684 C-385.34 684 -384.68 684 -384 684 C-383.77 683.13 -383.55 682.27 -383.31 681.38 C-381.64 677.07 -379.28 673.14 -375 671 C-374.3 669.27 -373.61 667.55 -372.91 665.82 C-371.52 663.04 -369.19 661.19 -367 659 C-366.13 657.52 -365.3 656.02 -364.5 654.5 C-362.47 650.64 -360.18 648.01 -357 645 C-356.32 643.97 -355.64 642.94 -354.94 641.88 C-353 639 -353 639 -350.94 637.56 C-348.57 635.66 -347.98 633.66 -346.9 630.88 C-345.58 628.13 -343.65 626.14 -341.61 623.89 C-339.83 621.8 -338.37 619.62 -336.88 617.31 C-334.83 614.15 -332.67 611.67 -330 609 C-329.29 607.55 -329.29 607.55 -328.56 606.06 C-326.83 602.66 -324.72 600.65 -322 598 C-320.98 596.34 -319.98 594.68 -319 593 C-317.8 591.58 -316.6 590.15 -315.39 588.74 C-313.76 586.7 -312.36 584.56 -310.94 582.38 C-308.87 579.19 -306.69 576.69 -304 574 C-303.26 572.45 -303.26 572.45 -302.5 570.88 C-300.92 567.85 -300.15 567.09 -297 566 C-297 565.34 -297 564.68 -297 564 C-302.05 563.21 -307.04 562.77 -312.14 562.54 C-313.73 562.46 -315.31 562.38 -316.89 562.3 C-319.33 562.18 -321.78 562.06 -324.22 561.95 C-333.11 561.53 -341.97 561 -350.82 560.06 C-351.93 559.95 -351.93 559.95 -353.05 559.83 C-357.27 559.36 -361.01 558.44 -365 557 C-377 554.79 -389.24 554.64 -401.4 554.34 C-419.58 553.88 -419.58 553.88 -424.12 551.06 C-426.52 547.16 -426.41 544.79 -425.7 540.35 C-424.66 536.86 -422.75 535.34 -420 533 C-418.16 530.7 -416.4 528.35 -414.65 525.99 C-413 524 -413 524 -410 522 C-408.91 520.01 -408.05 517.97 -407.16 515.88 C-405.74 513.57 -404.38 513.19 -402 512 C-400.78 510.17 -400.78 510.17 -399.94 508.06 C-398.66 505.14 -397.48 503.06 -395 501 C-394.34 501 -393.68 501 -393 501 C-392.75 500.3 -392.5 499.6 -392.25 498.88 C-389.8 493.23 -386.3 489.3 -382 485 C-381.48 484.09 -380.97 483.18 -380.44 482.25 C-379 480 -379 480 -376.81 479.19 C-375.92 479.09 -375.92 479.09 -375 479 C-374.66 477.39 -374.66 477.39 -374.31 475.75 C-372.81 471.44 -371.53 470.71 -368 468 C-367.16 466.78 -366.38 465.53 -365.62 464.25 C-363.34 460.38 -360.64 457.2 -357.63 453.88 C-355.5 451.42 -353.79 448.72 -352 446 C-351.32 445.34 -350.64 444.68 -349.94 444 C-347.8 442 -347.8 442 -346.5 438.88 C-345 436 -345 436 -343.02 435.05 C-340.56 433.77 -340.21 432.9 -339.19 430.38 C-337.29 426.24 -334.8 423.28 -331.73 419.95 C-330.11 418.12 -328.7 416.26 -327.31 414.25 C-325.35 411.49 -323.38 409.38 -321 407 C-320.34 406.01 -319.68 405.02 -319 404 C-317.18 401.27 -315.31 399.31 -313 397 C-312.34 395.95 -311.68 394.9 -311 393.81 C-309 391 -309 391 -306.75 390.12 C-305.88 390.06 -305.88 390.06 -305 390 C-304.86 389.07 -304.71 388.14 -304.56 387.19 C-302.87 381.12 -298.03 376.66 -294 372 C-293.29 371.11 -292.57 370.21 -291.84 369.29 C-290 367 -290 367 -287.94 365 C-285.91 363.06 -285.91 363.06 -284.56 360.56 C-282.74 357.57 -280.47 355.47 -278 353 C-277.48 352.13 -276.97 351.27 -276.44 350.38 C-275 348 -275 348 -273 346.56 C-270.31 344.46 -269.47 342.05 -268 339 C-266.29 336.7 -264.6 334.57 -262.52 332.6 C-260.89 330.88 -259.81 329.17 -258.62 327.12 C-256.47 323.57 -253.99 320.91 -251 318 C-250.48 317.11 -249.97 316.23 -249.44 315.31 C-248 313 -248 313 -246 312.12 C-243.33 310.62 -243.02 308.76 -241.97 305.99 C-240.44 302.86 -238.12 300.54 -235.77 297.98 C-234.13 296.14 -232.71 294.28 -231.31 292.25 C-229.35 289.49 -227.38 287.38 -225 285 C-224.34 283.99 -223.68 282.98 -223 281.94 C-221 279 -221 279 -218.94 277.56 C-216.66 275.98 -216.66 275.98 -215.56 272.44 C-213.7 268.34 -212.94 268.52 -209 267 C-208.71 266.11 -208.42 265.21 -208.12 264.29 C-206.85 260.55 -205.14 258.41 -202.56 255.44 C-200.24 252.75 -198.15 250.25 -196.34 247.19 C-195.9 246.47 -195.46 245.74 -195 245 C-194.32 244.86 -193.64 244.71 -192.94 244.56 C-192.3 244.38 -191.66 244.19 -191 244 C-190.32 242 -189.66 240 -189 238 C-186.5 235.12 -186.5 235.12 -184 233 C-183.34 233 -182.68 233 -182 233 C-181.77 231.93 -181.55 230.86 -181.31 229.75 C-179.79 225.4 -178.52 224.8 -175 222 C-173.39 219.47 -171.94 216.89 -170.53 214.24 C-168.85 211.78 -167.66 211.19 -165 210 C-164.29 208.35 -163.63 206.68 -163 205 C-161.13 202.38 -159.51 200.36 -156.88 198.5 C-154.8 197.1 -154.8 197.1 -154.06 194.56 C-153 192 -153 192 -150.62 190.19 C-147.61 187.67 -146.53 185.45 -144.99 181.9 C-143.91 179.82 -142.8 178.5 -141 177 C-140.34 177 -139.68 177 -139 177 C-138.76 176.29 -138.52 175.58 -138.28 174.84 C-136.8 171.55 -134.91 169.24 -132.56 166.5 C-130.28 163.82 -128.2 161.35 -126.46 158.28 C-124.82 155.72 -123.67 155.29 -121 154 C-119.82 152.13 -119.82 152.13 -119 150 C-117.54 146.45 -116.39 145.66 -113 144 C-111.92 142.34 -111.92 142.34 -111.19 140.38 C-109.28 136.21 -106.75 133.23 -103.66 129.88 C-101.81 127.87 -101.81 127.87 -99.88 124.81 C-97.87 121.81 -95.55 119.55 -93 117 C-92.48 116.11 -91.97 115.23 -91.44 114.31 C-90 112 -90 112 -88 111.12 C-85.62 110.05 -85.62 110.05 -84.56 106.62 C-82.85 102.65 -81.34 101.59 -78 99 C-77.57 98.13 -77.13 97.27 -76.69 96.38 C-74.61 92.22 -71.87 88.98 -68.93 85.41 C-67.37 83.46 -66.04 81.56 -64.75 79.44 C-63 77 -63 77 -60.88 76.5 C-60.26 76.33 -59.64 76.17 -59 76 C-58.29 74.01 -57.63 72.01 -57 70 C-55 67.63 -55 67.63 -53 66 C-52.34 66 -51.68 66 -51 66 C-50.84 65.03 -50.67 64.06 -50.5 63.06 C-49.21 58.46 -46.24 55.62 -43.03 52.21 C-41.25 50.27 -39.74 48.35 -38.25 46.19 C-36.31 43.45 -34.36 41.36 -32 39 C-31.34 37.95 -30.68 36.9 -30 35.81 C-28 33 -28 33 -25.75 32.12 C-24.88 32.06 -24.88 32.06 -24 32 C-23.77 30.93 -23.55 29.86 -23.31 28.75 C-21.82 24.49 -20.5 23.64 -17 21 C-15.97 19.02 -14.97 17.02 -14 15 C-12.45 12.82 -10.83 10.97 -9 9 C-8.34 9 -7.68 9 -7 9 C-6.73 8.36 -6.46 7.72 -6.19 7.06 C-5 5 -5 5 -2 4 C-0.79 2 -0.79 2 0 0 Z " fill="#FEFEFE" transform="translate(871,62)"/>
<path d="M0 0 C1.39 -0 2.78 -0.01 4.18 -0.01 C7.93 -0.02 11.69 -0.02 15.44 -0.02 C17.79 -0.02 20.14 -0.02 22.49 -0.03 C30.69 -0.04 38.89 -0.04 47.1 -0.04 C54.73 -0.04 62.37 -0.05 70.01 -0.07 C76.58 -0.08 83.15 -0.08 89.72 -0.08 C93.63 -0.08 97.55 -0.09 101.47 -0.1 C105.15 -0.11 108.83 -0.11 112.51 -0.1 C114.5 -0.1 116.5 -0.11 118.49 -0.11 C119.68 -0.11 120.87 -0.11 122.09 -0.1 C123.12 -0.1 124.15 -0.1 125.21 -0.1 C128.94 0.23 131.82 1.2 134.77 3.52 C137 6.41 137.14 9.67 137.27 13.23 C137.3 13.99 137.33 14.76 137.37 15.55 C137.43 17.14 137.49 18.74 137.54 20.33 C137.57 21.1 137.61 21.87 137.64 22.66 C137.67 23.36 137.69 24.05 137.72 24.76 C137.97 27.29 137.97 27.29 138.97 30.16 C140.54 35.43 140.79 40.87 141.24 46.32 C141.34 47.49 141.45 48.66 141.55 49.86 C141.88 53.58 142.2 57.3 142.52 61.02 C142.84 64.73 143.16 68.45 143.49 72.16 C143.69 74.46 143.89 76.77 144.08 79.07 C144.8 87.21 145.91 94.85 149.02 102.44 C151.62 109.34 152.47 116.35 153.44 123.62 C154.33 129.6 155.49 133.16 159.02 138.15 C160.36 142.13 161.18 146.24 162.09 150.33 C163.26 155.27 164.3 157.6 168.02 161.15 C168.81 163.64 169.43 165.98 169.96 168.52 C171.24 174.5 171.24 174.5 174.77 179.33 C177.9 183.24 177.9 186.37 177.72 191.29 C176.69 195.5 174.55 197.02 170.97 199.25 C169.02 200.15 169.02 200.15 167.02 200.15 C166.68 201.04 166.68 201.04 166.33 201.96 C164.58 204.88 163.12 205.7 160.02 207.15 C157.69 207.65 155.37 208.08 153.01 208.42 C150.85 208.96 150.85 208.96 149.99 211.07 C149.67 211.76 149.35 212.44 149.02 213.15 C144.81 216.13 140.14 217.63 135.02 218.15 C134.94 218.76 134.87 219.38 134.78 220.02 C134.02 222.15 134.02 222.15 132.17 223.27 C131.4 223.56 130.63 223.85 129.83 224.15 C125.1 226.06 121.09 228.43 117.15 231.71 C115.11 233.09 113.52 233.69 111.21 234.46 C108.04 235.56 106.03 236.85 103.58 239.15 C100.32 242.18 97.31 243.16 93.08 244.37 C90.02 245.52 88.28 247.83 86.02 250.15 C82.38 251.97 79.11 253.15 75.02 253.15 C74.95 253.76 74.87 254.38 74.79 255.02 C74.02 257.15 74.02 257.15 72.13 258.31 C71.35 258.6 70.57 258.9 69.77 259.21 C65.31 261.02 61.44 262.81 57.9 266.15 C53.66 269.09 49.01 269.99 44.02 271.15 C44.02 271.81 44.02 272.47 44.02 273.15 C42.7 273.81 41.38 274.47 40.02 275.15 C38.68 274.03 37.35 272.9 36.02 271.77 C35.28 271.14 34.54 270.52 33.77 269.87 C32.91 269.02 32.91 269.02 32.02 268.15 C32.02 267.49 32.02 266.83 32.02 266.15 C31.03 265.82 30.04 265.49 29.02 265.15 C26.66 262.09 25.69 259.06 24.71 255.4 C23.66 251.62 22.34 248.92 20.02 245.77 C16.86 241.39 15.82 237.22 14.86 231.94 C14.2 229.05 14.2 229.05 12.12 226.94 C9.08 222.9 8.24 218.56 7.02 213.71 C5.3 206.55 5.3 206.55 1.96 200.08 C-1.07 195.48 -1.5 190.49 -2.4 185.13 C-3.36 179.9 -4.75 176.5 -7.98 172.15 C-9.15 168.44 -9.87 164.98 -10.36 161.13 C-10.5 160.04 -10.65 158.95 -10.79 157.83 C-10.95 156.32 -10.95 156.32 -11.12 154.78 C-11.91 151.45 -12.94 149.02 -14.44 145.97 C-17.2 140.11 -18.1 134.67 -18.73 128.27 C-18.91 126.69 -18.91 126.69 -19.09 125.07 C-19.67 119.76 -20.1 114.48 -20.35 109.15 C-20.71 103.4 -22.27 98.28 -24.16 92.87 C-30.47 74.65 -28.11 52.28 -28.21 33.25 C-28.22 31.06 -28.24 28.86 -28.26 26.67 C-28.29 23.54 -28.3 20.42 -28.31 17.29 C-28.32 16.34 -28.33 15.39 -28.34 14.42 C-28.33 9.53 -28.24 6.07 -24.98 2.15 C-17.96 -1.36 -7.63 -0 0 0 Z " fill="#FEFEFE" transform="translate(112.9775390625,574.854736328125)"/>
<path d="M0 0 C1.34 1.66 2.67 3.33 4 5 C6.24 5.96 8.48 6.64 10.82 7.32 C14.18 8.37 16.97 9.85 19.33 12.48 C21.37 14.34 23.21 14.97 25.81 15.88 C30.36 17.59 33.26 19.88 37 23 C39.53 24.12 42.1 25.08 44.69 26.04 C47.58 27.24 49.59 29.02 52 31 C54.54 32.29 57.1 33.49 59.7 34.66 C62 36 62 36 63.53 38.06 C65.33 40.43 66.54 40.79 69.38 41.56 C72.95 42.64 75.98 43.73 79 46 C79.33 46.99 79.66 47.98 80 49 C82.33 49.81 82.33 49.81 85.12 50.31 C90.05 51.52 92.61 53.03 96.18 56.52 C99.05 58.85 102.35 59.82 105.79 61.08 C108.56 62.23 109.99 63.79 112 66 C114.29 67.53 116.62 69 118.98 70.44 C121.29 72.22 122.3 73.15 123 76 C121.81 78.83 121.81 78.83 120 82 C118.49 85.35 116.99 88.71 115.5 92.07 C114.19 94.63 113.25 96.27 111 98 C110.34 98 109.68 98 109 98 C108.87 98.84 108.87 98.84 108.74 99.69 C107.77 104.95 106.2 108.69 103.23 113.11 C100.92 116.67 99.51 120.63 98.04 124.59 C97.69 125.49 97.35 126.39 97 127.31 C96.69 128.15 96.38 129 96.06 129.86 C95 132 95 132 92 134 C91.07 137.07 90.36 140.1 89.71 143.24 C88.86 146.93 87.97 149.04 85.5 151.95 C82.4 155.73 81.78 158.79 80.94 163.5 C80.67 164.97 80.38 166.44 80.09 167.91 C79.98 168.55 79.86 169.19 79.74 169.85 C79 172 79 172 77.02 174.84 C74.83 178.27 74.23 180.62 73.66 184.61 C73.36 186.49 73.36 186.49 73.07 188.4 C72.79 190.33 72.79 190.33 72.5 192.31 C70.34 207.11 70.34 207.11 66.88 214.09 C65.58 216.92 65.18 219.68 64.81 222.75 C64.59 224.53 64.59 224.53 64.36 226.36 C63.91 230.95 63.62 235.55 63.44 240.16 C62.78 244.4 61.66 246.65 58.29 249.39 C49.63 254.76 39.5 253.79 29.69 253.81 C27.55 253.83 25.41 253.86 23.27 253.88 C17.54 253.94 11.8 253.96 6.06 253.98 C-0.08 254 -6.23 254.03 -12.37 254.06 C-23.91 254.12 -35.46 254.15 -47 254.18 C-50.19 254.19 -53.37 254.2 -56.55 254.21 C-61.63 254.23 -66.71 254.23 -71.79 254.23 C-73.69 254.23 -75.59 254.23 -77.48 254.24 C-80.11 254.25 -82.74 254.25 -85.36 254.24 C-86.12 254.25 -86.89 254.25 -87.67 254.26 C-93.72 254.22 -99.98 254.02 -104.44 249.56 C-109.93 240.55 -106.62 225.84 -104.29 216.05 C-103.84 214.25 -103.39 212.46 -102.94 210.66 C-100.89 202.24 -99.9 193.81 -99.16 185.18 C-98.45 177.67 -96.65 171.05 -94 164 C-91.54 157.42 -90.19 150.97 -89.18 144.03 C-88.5 139.69 -87.48 136.62 -85 133 C-82.42 128.75 -82.06 123.95 -81.41 119.11 C-80.64 114.33 -79.14 111.59 -76.18 107.8 C-74.12 104.66 -73.66 101.21 -73 97.56 C-71.86 92.01 -70.72 87.83 -67.29 83.23 C-65.04 79.34 -64.02 74.96 -62.88 70.63 C-61.65 66.25 -60.2 64.12 -57 61 C-55.77 57.89 -55.77 57.89 -54.94 54.5 C-53.84 50.39 -52.96 47.14 -50 44 C-49.34 44 -48.68 44 -48 44 C-47.85 43.3 -47.71 42.6 -47.55 41.88 C-46.12 35.8 -44.39 31.74 -40.41 26.96 C-38.87 24.83 -38.22 23.02 -37.5 20.5 C-36.26 16.23 -34.26 13.41 -31.48 9.98 C-29.97 7.96 -28.93 5.98 -27.88 3.69 C-25.62 -1.02 -23.5 -2.46 -18.56 -4.25 C-12.03 -5.63 -5.82 -3 0 0 Z " fill="#FEFEFE" transform="translate(193,289)"/>
<path d="M0 0 C2.62 2.19 2.62 2.19 5 5 C5.89 5.91 6.77 6.81 7.69 7.75 C10.23 11.32 10.82 13.79 11.35 18.05 C11.81 20.18 11.81 20.18 13.93 21.03 C14.61 21.35 15.29 21.67 16 22 C17.2 23.77 17.2 23.77 18.12 25.81 C18.62 26.88 18.62 26.88 19.13 27.97 C19.81 29.54 20.42 31.14 21 32.75 C21.88 35.12 21.88 35.12 23.91 36.77 C26.34 39.36 27.22 41.61 28.44 44.94 C30.34 49.76 32.23 52.42 36 56 C37.1 58.23 38.03 60.5 38.96 62.81 C40.02 65.3 40.02 65.3 42.62 68 C45.34 71.43 45.82 73.79 46.35 78.05 C46.81 80.18 46.81 80.18 48.92 81.03 C49.61 81.35 50.29 81.67 51 82 C53.48 85.5 54.87 89.15 55.5 93.38 C55.66 94.24 55.83 95.11 56 96 C57.88 97.11 57.88 97.11 60 98 C61.56 100.21 62.76 102.49 63.93 104.93 C65.46 108.08 66.82 110.78 69.06 113.5 C70.88 115.84 71.54 117.31 72.44 120.06 C73.5 123.26 73.72 123.82 76.69 125.75 C79.63 128.62 79.46 129.96 79.62 134 C79.36 139.53 79.36 139.53 77.06 142.5 C73.82 144.09 70.55 145.57 67.18 146.88 C64.88 147.92 64.88 147.92 63.09 149.94 C60.62 152.38 58.21 153.54 55.06 155 C50.87 156.95 47.58 159.09 44 162 C42.85 162.47 41.69 162.95 40.5 163.44 C36.94 164.78 36.94 164.78 34.62 167.38 C31.72 170.28 28.88 171.78 25.28 173.67 C22.37 175.37 20.03 177.44 17.61 179.77 C15.76 181.18 14.23 181.44 12 182 C11.59 182.74 11.18 183.49 10.75 184.25 C8.61 187.61 6.37 188.78 2.99 190.75 C0.26 192.47 -1.79 194.67 -4 197 C-5.67 198.33 -7.33 199.67 -9 201 C-10.27 202.3 -10.27 202.3 -11.56 203.62 C-14 206 -14 206 -16.19 207.06 C-18.15 207.85 -18.15 207.85 -18.88 209.81 C-20.24 212.47 -22.15 213.87 -24.48 215.7 C-26.25 217.13 -26.25 217.13 -28.25 219.81 C-28.83 220.53 -29.4 221.26 -30 222 C-30.66 222 -31.32 222 -32 222 C-32.23 222.56 -32.45 223.11 -32.69 223.69 C-34.36 226.64 -36.6 228.6 -39 231 C-39.99 232.34 -40.97 233.7 -41.94 235.06 C-44.54 238.63 -47.25 240.64 -51 243 C-52.35 244.66 -53.68 246.32 -55 248 C-59.32 249.44 -61.97 247.81 -66 246 C-67.68 245.03 -69.35 244.03 -71 243 C-73 242.03 -75.01 241.09 -77.04 240.16 C-79 239 -79 239 -80.91 236.99 C-83.32 234.69 -85.15 234.07 -88.31 233.12 C-92.94 231.57 -95.76 229.78 -99.25 226.45 C-101.87 224.28 -104.82 223.2 -107.95 221.93 C-110.66 220.7 -112.68 218.85 -115 217 C-117.28 215.93 -119.57 214.96 -121.91 214.03 C-124.12 212.94 -125.45 211.9 -127 210 C-127 209.34 -127 208.68 -127 208 C-127.99 207.92 -128.98 207.84 -130 207.75 C-134.4 207.12 -138.3 205.47 -142 203 C-142.66 202.01 -143.32 201.02 -144 200 C-146.27 198.88 -146.27 198.88 -148.88 198 C-152.38 196.75 -155.2 195.5 -158 193 C-158 192.34 -158 191.68 -158 191 C-158.63 190.85 -159.26 190.71 -159.91 190.55 C-165.59 189.07 -169.41 187.19 -173.93 183.48 C-176.25 181.82 -178.46 180.92 -181.12 179.94 C-185.68 178.26 -188.49 176.34 -192 173 C-193.14 172.07 -193.14 172.07 -194.31 171.12 C-196.79 168.01 -197 165.97 -197 162 C-195.29 156.05 -192.94 152.71 -188 149 C-186.9 147.28 -186.9 147.28 -185.94 145.38 C-183.9 141.82 -183.39 141.64 -180 140 C-178.95 138.03 -177.95 136.02 -177 134 C-175.5 132.12 -175.5 132.12 -174 131 C-173.01 131 -172.02 131 -171 131 C-170.75 129.91 -170.5 128.81 -170.25 127.69 C-168.98 123.94 -168.41 122.81 -165 121 C-164.34 121 -163.68 121 -163 121 C-162.77 120.28 -162.55 119.56 -162.31 118.81 C-160.73 115.42 -158.7 113.58 -156 111 C-155.2 110.01 -154.39 109.02 -153.56 108 C-151.38 105.44 -149.19 103.47 -146.57 101.38 C-144.86 99.87 -143.46 98.26 -142 96.5 C-138.53 92.44 -134.76 88.78 -130.88 85.12 C-130.28 84.55 -129.68 83.98 -129.06 83.39 C-125.83 80.38 -123.22 78.5 -119 77 C-118.53 76.2 -118.05 75.39 -117.56 74.56 C-116 72 -116 72 -113.06 70.56 C-109.78 69.2 -109.78 69.2 -108 66 C-105.65 62.48 -103.74 61.83 -100 60 C-98.76 58.51 -98.76 58.51 -97.5 57 C-94.81 53.77 -92.73 52.79 -89 51 C-88.2 50.2 -87.39 49.39 -86.56 48.56 C-83.55 45.55 -80.79 43.93 -77 42 C-76.34 42 -75.68 42 -75 42 C-74.76 41.39 -74.52 40.78 -74.27 40.15 C-72.71 37.51 -71.37 36.88 -68.62 35.56 C-65.61 34 -64.14 33.19 -62.06 30.44 C-59.29 27.16 -56.29 26.47 -52.32 25.03 C-49.26 23.67 -48.03 21.61 -46 19 C-43.79 17.87 -41.53 16.96 -39.22 16.03 C-36.73 14.99 -36.73 14.99 -34.06 12.5 C-30.6 9.67 -27.39 8.5 -23.24 6.97 C-20.84 6.1 -20.84 6.1 -19 3.94 C-14.16 -0.75 -6.28 -1.97 0 0 Z " fill="#FEFEFE" transform="translate(395,85)"/>
<path d="M0 0 C1.27 -0.01 1.27 -0.01 2.56 -0.03 C4.98 -0.05 7.4 -0.06 9.83 -0.05 C10.55 -0.06 11.28 -0.07 12.03 -0.08 C17.65 -0.03 20.82 1.38 24.75 5.31 C26.95 12.07 27.16 18.62 27.32 25.7 C27.36 27.01 27.39 28.32 27.43 29.67 C27.56 34.55 27.65 39.43 27.75 44.31 C27.77 45.31 27.79 46.31 27.81 47.34 C28.09 61.76 28.31 76.17 28.48 90.59 C28.56 97.08 28.64 103.57 28.75 110.06 C28.86 116.43 28.95 122.8 29.01 129.17 C29.04 131.57 29.08 133.98 29.12 136.38 C29.19 139.72 29.22 143.07 29.24 146.41 C29.27 147.39 29.29 148.36 29.32 149.37 C29.32 156.08 27.9 160.95 23.75 166.31 C20.31 169.15 17.65 169.7 13.25 169.8 C12.17 169.84 11.09 169.87 9.98 169.91 C8.82 169.93 7.66 169.95 6.46 169.97 C5.25 170.01 4.03 170.04 2.79 170.08 C-1.1 170.19 -4.99 170.28 -8.88 170.38 C-29.1 170.79 -29.1 170.79 -49.28 172.25 C-50.03 172.32 -50.78 172.4 -51.56 172.47 C-56.26 173.01 -60.02 174.16 -64.18 176.37 C-69.59 178.83 -76.01 179.07 -81.86 179.7 C-89.54 180.57 -96.09 182.16 -103.29 184.95 C-109.05 187.06 -115.07 188.28 -121.06 189.61 C-125.28 190.56 -129.29 191.51 -133.25 193.31 C-141.41 187.4 -147.16 182.69 -149.25 172.31 C-149.25 171.65 -149.25 170.99 -149.25 170.31 C-150.17 169.93 -150.17 169.93 -151.11 169.55 C-154.69 167.48 -155.8 164.06 -157.25 160.31 C-158 156.81 -158 156.81 -158.25 154.31 C-158.87 154.23 -159.49 154.16 -160.12 154.07 C-162.25 153.31 -162.25 153.31 -163.38 151.46 C-163.66 150.69 -163.95 149.92 -164.25 149.12 C-166.15 144.42 -168.5 140.42 -171.75 136.5 C-173.68 133.69 -174.84 130.7 -176.09 127.53 C-177.17 125.19 -177.17 125.19 -179.26 123.37 C-181.59 120.96 -182.23 119.07 -183.19 115.88 C-184.4 112.27 -185.02 110.54 -187.75 107.81 C-191.02 104.54 -191.79 101.22 -193.21 96.88 C-194.55 93.57 -196.71 91.79 -199.25 89.31 C-200.13 87 -200.79 84.71 -201.38 82.3 C-202.51 79.72 -203.74 79.44 -206.25 78.31 C-208.02 75.31 -209.19 72.54 -210.12 69.19 C-211.03 66.12 -211.03 66.12 -213.81 64.38 C-216.25 62.31 -216.25 62.31 -217.19 59 C-217.26 54.9 -216.82 52.1 -215.25 48.31 C-211.71 44.95 -208.63 43.59 -203.94 42.38 C-199.94 41.24 -196.72 40.21 -193.38 37.75 C-188.72 34.48 -183.34 34.05 -177.84 33.28 C-174.17 32.29 -172.68 31.02 -169.95 28.5 C-166.54 26.11 -162.35 25.86 -158.31 25.25 C-152.51 24.35 -148.26 23.45 -143.24 20.27 C-138.77 18.12 -133.61 17.84 -128.75 17.19 C-126.55 16.88 -124.35 16.56 -122.16 16.24 C-121.19 16.11 -120.22 15.98 -119.23 15.84 C-115.81 15.23 -112.58 14.3 -109.25 13.31 C-97.21 9.87 -85.77 8.43 -73.31 7.68 C-64.45 7.12 -56.67 6.1 -48.21 3.23 C-43.61 1.8 -39.1 1.38 -34.31 1.06 C-33.29 0.99 -32.27 0.92 -31.22 0.84 C-20.82 0.19 -10.41 0.07 0 0 Z " fill="#FEFEFE" transform="translate(645.25,15.6875)"/>
<path d="M0 0 C3.21 2.46 3.91 3.66 5 7.62 C5.33 8.74 5.66 9.85 6 11 C7.33 11.68 8.66 12.34 10 13 C11.41 14.8 11.41 14.8 12.62 16.88 C13.03 17.55 13.43 18.23 13.85 18.93 C15 21 15 21 15.99 23.14 C16.96 25.25 16.96 25.25 19.5 26.81 C22.67 29.59 23.14 31.95 24 36 C24.6 36.06 25.2 36.12 25.81 36.19 C28.89 37.33 29.42 39.18 31 42 C32.9 44.02 34.85 45.87 36.94 47.69 C40.43 51.6 42.66 56.33 45 61 C44.01 62.68 43.01 64.34 42 66 C41.22 68.03 40.52 70.07 39.84 72.13 C38.86 74.3 37.87 75.53 36 77 C35.01 77 34.02 77 33 77 C32.9 77.74 32.8 78.47 32.7 79.23 C31.91 82.35 30.82 83.82 28.75 86.25 C26.2 89.36 24.19 92.35 22.38 95.94 C20.38 99.77 19.03 100.47 15 102 C14.31 104.33 13.65 106.66 13 109 C11.89 109.87 11.89 109.87 10.75 110.75 C7.1 113.74 5.62 117.24 3.48 121.39 C1.73 124.47 -0.44 126.57 -3 129 C-3.72 130.21 -4.41 131.44 -5.06 132.69 C-7 136 -7 136 -9.06 137 C-11.4 137.95 -11.4 137.95 -12.44 141.38 C-14 145 -14 145 -16.38 146.81 C-19.75 149.63 -20.91 152.68 -22.75 156.61 C-24.35 159.67 -26.51 161.64 -29 164 C-30.31 166.07 -31.52 168.17 -32.69 170.33 C-34.31 172.4 -35.45 172.63 -38 173 C-38.02 173.85 -38.04 174.69 -38.06 175.56 C-39.39 180.42 -42.35 182.71 -46 186 C-46.51 186.53 -47.02 187.07 -47.55 187.62 C-49.85 189.81 -51.91 190.39 -55 191 C-59.43 189.18 -62.72 186.77 -66.25 183.56 C-67.1 182.8 -67.95 182.04 -68.83 181.25 C-70.83 179.18 -71.79 177.56 -73 175 C-73.8 174.55 -74.61 174.09 -75.44 173.62 C-78 172 -78 172 -79.44 169.06 C-80.8 165.78 -80.8 165.78 -84 164 C-87.5 161.67 -88.19 159.7 -90 156 C-91.24 155.26 -91.24 155.26 -92.5 154.5 C-95.76 152.55 -96.35 150.37 -98 147 C-99.21 146.04 -99.21 146.04 -100.44 145.06 C-102.85 143.12 -103.62 142.13 -105 139.5 C-106.35 136.93 -107.06 135.96 -109.44 134.12 C-112.59 131.51 -113.88 128.76 -115.74 125.17 C-117.4 122.31 -119.64 120.3 -122 118 C-123 116 -124 114 -125 112 C-125.78 111.26 -126.57 110.51 -127.38 109.75 C-130.44 106.54 -131.88 103.33 -133.74 99.34 C-134.97 96.76 -134.97 96.76 -137.69 94.5 C-141.78 90.08 -141.73 84.42 -142.38 78.62 C-142 76 -142 76 -140.5 73.75 C-137.59 71.71 -135.18 71.27 -131.76 70.56 C-129.8 70.14 -129.8 70.14 -128.75 68.06 C-128.5 67.38 -128.25 66.7 -128 66 C-125.47 63.47 -122.92 62.62 -119.56 61.62 C-116.28 60.61 -115.07 60.07 -112.56 57.56 C-109.43 54.43 -106.51 53.53 -102.41 52.03 C-99.09 50.61 -96.74 48.33 -94 46 C-91.75 44.92 -89.46 43.98 -87.16 43.04 C-84.71 41.97 -84.71 41.97 -82 39.44 C-79.19 37.15 -77.79 36.48 -74.44 35.5 C-71.2 34.54 -70.09 34.09 -67.62 31.62 C-64.33 28.33 -60.91 27.03 -56.62 25.31 C-53.79 23.9 -52.21 22.22 -50 20 C-47.63 18.91 -47.63 18.91 -45.12 18.06 C-41.69 16.79 -39.85 15.87 -37 13.44 C-33.48 10.58 -30.54 9.83 -26.17 8.87 C-23.39 7.76 -23.18 6.67 -22 4 C-15.3 -0.64 -8.01 -1.34 0 0 Z " fill="#FEFEFE" transform="translate(313,803)"/>
<path d="M0 0 C5.62 0.83 11.19 1.43 16.86 1.76 C18.08 1.83 19.3 1.91 20.55 1.98 C22.96 2.12 25.37 2.24 27.79 2.35 C35.76 2.82 42.48 4.52 49.94 7.31 C56.74 9.53 63.58 10.24 70.67 10.99 C77.09 11.77 82.15 13.48 87.94 16.31 C94.27 18.65 100.58 19.82 107.27 20.59 C110.54 21.47 111.83 22.7 113.94 25.31 C115.56 30.17 115.72 34.52 113.69 39.19 C111.94 41.31 111.94 41.31 109.94 42.25 C107.63 43.23 107.63 43.23 106.5 46.19 C104.94 49.31 104.94 49.31 102.5 51.19 C99.99 53.27 99.39 54.15 98.12 57 C96.08 61.46 93.15 64.69 89.83 68.27 C87.74 70.52 85.85 72.91 83.94 75.31 C83.42 75.79 82.91 76.26 82.38 76.75 C80.71 78.4 80.71 78.4 79.56 81.31 C77.94 84.31 77.94 84.31 75.44 85.75 C71.97 87.92 71.5 90.6 69.94 94.31 C69.15 94.93 68.37 95.55 67.56 96.19 C64.34 98.79 63.08 101.52 61.19 105.14 C59.53 108.02 57.34 110.03 54.94 112.31 C54.06 113.51 53.21 114.71 52.38 115.94 C50.91 118.07 49.92 119.32 47.81 120.88 C45.69 122.29 45.69 122.29 44.5 125.19 C42.77 128.64 40.65 130.6 37.94 133.31 C37.44 134.32 36.95 135.33 36.44 136.38 C34.94 139.31 34.94 139.31 32.62 141.12 C29.37 143.78 27.61 146.71 25.46 150.29 C23.78 152.52 22.41 153.12 19.94 154.31 C19.21 156.29 18.54 158.29 17.94 160.31 C15.54 165.1 10.72 166.55 5.94 168.31 C1.56 169.77 -1.09 168.24 -5.06 166.31 C-6.13 165.9 -7.21 165.49 -8.31 165.06 C-11.94 162.75 -13.05 160.37 -14.06 156.31 C-14.5 151.52 -14.46 146.73 -14.43 141.92 C-14.44 140.46 -14.44 139 -14.45 137.54 C-14.46 133.58 -14.45 129.63 -14.43 125.68 C-14.42 121.54 -14.43 117.4 -14.43 113.26 C-14.43 106.3 -14.42 99.35 -14.4 92.4 C-14.38 84.37 -14.37 76.33 -14.38 68.3 C-14.39 60.56 -14.38 52.83 -14.37 45.09 C-14.36 41.8 -14.36 38.51 -14.37 35.22 C-14.37 31.35 -14.36 27.48 -14.34 23.6 C-14.34 22.18 -14.34 20.76 -14.34 19.34 C-14.34 17.4 -14.33 15.46 -14.32 13.52 C-14.32 12.44 -14.32 11.35 -14.32 10.24 C-13.95 6.01 -13.15 3.23 -9.88 0.46 C-6.18 -1.05 -3.94 -0.63 0 0 Z " fill="#FEFEFE" transform="translate(720.0625,21.6875)"/>
</svg>
